<?xml version="1.0" encoding="utf-8"?>
<!-- Generator: Adobe Illustrator 22.1.0, SVG Export Plug-In . SVG Version: 6.00 Build 0)  -->
<svg version="1.1" id="Capa_1" xmlns="http://www.w3.org/2000/svg" xmlns:xlink="http://www.w3.org/1999/xlink" x="0px" y="0px"
	 viewBox="0 0 480 480" style="enable-background:new 0 0 480 480;" xml:space="preserve">
<style type="text/css">
	.st0{opacity:0.4;fill:#FFFFFF;}
	.st1{fill:#FFFFFF;}
</style>
<path class="st0" d="M456,184H264c-8.8,0-16,7.2-16,16v256c0,8.8,7.2,16,16,16h192c8.8,0,16-7.2,16-16V200
	C472,191.2,464.8,184,456,184z M344,432c0,4.4-3.6,8-8,8h-48c-4.4,0-8-3.6-8-8v-48c0-4.4,3.6-8,8-8h48c4.4,0,8,3.6,8,8V432z
	 M344,344c0,4.4-3.6,8-8,8h-48c-4.4,0-8-3.6-8-8v-48c0-4.4,3.6-8,8-8h48c4.4,0,8,3.6,8,8V344z M440,432c0,4.4-3.6,8-8,8h-48
	c-4.4,0-8-3.6-8-8V296c0-4.4,3.6-8,8-8h48c4.4,0,8,3.6,8,8V432z M440,256c0,4.4-3.6,8-8,8H288c-4.4,0-8-3.6-8-8v-32c0-4.4,3.6-8,8-8
	h144c4.4,0,8,3.6,8,8V256z"/>
<path class="st0" d="M344,56v128h96V56c0-26.5-21.5-48-48-48C365.5,8,344,29.5,344,56z"/>
<g>
	<path class="st1" d="M48,48h32v16H48V48z"/>
	<path class="st1" d="M96,48h16v16H96V48z"/>
	<path class="st1" d="M128,48h144v16H128V48z"/>
	<path class="st1" d="M48,96h96v16H48V96z"/>
	<path class="st1" d="M160,96h32v16h-32V96z"/>
	<path class="st1" d="M208,96h64v16h-64V96z"/>
	<path class="st1" d="M48,144h64v16H48V144z"/>
	<path class="st1" d="M128,144h64v16h-64V144z"/>
	<path class="st1" d="M208,144h16v16h-16V144z"/>
	<path class="st1" d="M240,144h32v16h-32V144z"/>
	<path class="st1" d="M48,192h96v16H48V192z"/>
	<path class="st1" d="M160,192h48v16h-48V192z"/>
	<path class="st1" d="M48,240h32v16H48V240z"/>
	<path class="st1" d="M96,240h80v16H96V240z"/>
	<path class="st1" d="M456,176h-8V56c0-30.9-25.1-56-56-56H56C25.1,0,0,25.1,0,56v384c0,22.1,17.9,40,40,40h416
		c13.3,0,24-10.7,24-24V200C480,186.7,469.3,176,456,176z M420.3,27.8c7.5,7.5,11.8,17.6,11.7,28.2v120h-80V56c0-22.1,17.9-40,40-40
		C402.6,16,412.8,20.2,420.3,27.8z M16,440V56c0-22.1,17.9-40,40-40h296.9C342.1,26.5,336,40.9,336,56v120h-72
		c-13.3,0-24,10.7-24,24v256c0,2.7,0.5,5.4,1.5,8H40C26.7,464,16,453.3,16,440z M464,456c0,4.4-3.6,8-8,8H264c-4.4,0-8-3.6-8-8V200
		c0-4.4,3.6-8,8-8h192c4.4,0,8,3.6,8,8V456z"/>
	<path class="st1" d="M432,208H288c-8.8,0-16,7.2-16,16v32c0,8.8,7.2,16,16,16h144c8.8,0,16-7.2,16-16v-32
		C448,215.2,440.8,208,432,208z M288,256v-32h144v32H288z"/>
	<path class="st1" d="M336,280h-48c-8.8,0-16,7.2-16,16v48c0,8.8,7.2,16,16,16h48c8.8,0,16-7.2,16-16v-48
		C352,287.2,344.8,280,336,280z M288,344v-48h48v48H288z"/>
	<path class="st1" d="M336,368h-48c-8.8,0-16,7.2-16,16v48c0,8.8,7.2,16,16,16h48c8.8,0,16-7.2,16-16v-48
		C352,375.2,344.8,368,336,368z M288,432v-48h48v48H288z"/>
	<path class="st1" d="M432,280h-48c-8.8,0-16,7.2-16,16v136c0,8.8,7.2,16,16,16h48c8.8,0,16-7.2,16-16V296
		C448,287.2,440.8,280,432,280z M384,432V296h48v136H384z"/>
	<path class="st1" d="M320,304h-16v8h-8v16h8v8h16v-8h8v-16h-8V304z"/>
	<path class="st1" d="M296,400h32v16h-32V400z"/>
	<path class="st1" d="M392,344h32v16h-32V344z"/>
	<path class="st1" d="M392,368h32v16h-32V368z"/>
	<path class="st1" d="M192,240h32v16h-32V240z"/>
	<path class="st1" d="M48,288h128v16H48V288z"/>
	<path class="st1" d="M192,288h32v16h-32V288z"/>
	<path class="st1" d="M48,336h96v16H48V336z"/>
	<path class="st1" d="M160,336h48v16h-48V336z"/>
	<path class="st1" d="M48,384h32v16H48V384z"/>
	<path class="st1" d="M96,384h80v16H96V384z"/>
	<path class="st1" d="M192,384h32v16h-32V384z"/>
</g>
</svg>
