<?xml version="1.0" encoding="utf-8"?>
<!-- Generator: Adobe Illustrator 22.1.0, SVG Export Plug-In . SVG Version: 6.00 Build 0)  -->
<svg version="1.1" id="Capa_1" xmlns="http://www.w3.org/2000/svg" xmlns:xlink="http://www.w3.org/1999/xlink" x="0px" y="0px"
	 viewBox="0 0 480 480" style="enable-background:new 0 0 480 480;" xml:space="preserve">
<style type="text/css">
	.st0{opacity:0.4;}
	.st1{fill:#FFFFFF;}
</style>
<g class="st0">
	<path class="st1" d="M344,440H40V8H8v456c0,4.4,3.6,8,8,8h456v-32H344z"/>
	<path class="st1" d="M168,288c0-4.4-3.6-8-8-8H96c-4.4,0-8,3.6-8,8v152h80V288z"/>
	<path class="st1" d="M296,208c0-4.4-3.6-8-8-8h-64c-4.4,0-8,3.6-8,8v232h80V208z"/>
	<path class="st1" d="M424,112c0-4.4-3.6-8-8-8h-64c-4.4,0-8,3.6-8,8v328h80V112z"/>
</g>
<path class="st1" d="M472,432h-40V112c0-8.8-7.2-16-16-16h-64c-8.8,0-16,7.2-16,16v320h-32V208c0-8.8-7.2-16-16-16h-64
	c-8.8,0-16,7.2-16,16v224h-32V288c0-8.8-7.2-16-16-16H96c-8.8,0-16,7.2-16,16v144H48V8c0-4.4-3.6-8-8-8H8C3.6,0,0,3.6,0,8v456
	c0,8.8,7.2,16,16,16h456c4.4,0,8-3.6,8-8v-32C480,435.6,476.4,432,472,432z M352,112h64v320h-64V112z M224,208h64v224h-64V208z
	 M96,288h64v144H96V288z M464,464H16V16h16v424c0,4.4,3.6,8,8,8h424V464z"/>
<path class="st1" d="M152,144c-4.4,0-8-3.6-8-8h-16c0,10.1,6.4,19.1,16,22.5v9.5h16v-9.5c9.6-3.4,16-12.4,16-22.5
	c0-12.9-11.8-18.8-20.4-23.2c-6.8-3.4-11.6-6-11.6-8.8c0-4.4,3.6-8,8-8s8,3.6,8,8h16c0-10.1-6.4-19.1-16-22.5V72h-16v9.5
	c-9.6,3.4-16,12.4-16,22.5c0,12.9,11.8,18.8,20.4,23.2c6.8,3.4,11.6,6,11.6,8.8C160,140.4,156.4,144,152,144z"/>
<path class="st1" d="M152,192c39.8,0,72-32.2,72-72s-32.2-72-72-72s-72,32.2-72,72C80,159.7,112.3,192,152,192z M152,64
	c30.9,0,56,25.1,56,56s-25.1,56-56,56s-56-25.1-56-56C96,89.1,121.1,64,152,64z"/>
<path class="st1" d="M240,64h16v56c0,4.4,3.6,8,8,8h48c4.4,0,8-3.6,8-8V64h16c3.2,0,6.2-1.9,7.4-4.9s0.6-6.4-1.7-8.7l-48-48
	c-3.1-3.1-8.2-3.1-11.3,0l-48,48c-2.3,2.3-3,5.7-1.7,8.7S236.8,64,240,64z M288,19.3L316.7,48H312c-4.4,0-8,3.6-8,8v56h-32V56
	c0-4.4-3.6-8-8-8h-4.7L288,19.3z"/>
</svg>
