<?xml version="1.0" encoding="utf-8"?>
<!-- Generator: Adobe Illustrator 22.1.0, SVG Export Plug-In . SVG Version: 6.00 Build 0)  -->
<svg version="1.1" id="Capa_1" xmlns="http://www.w3.org/2000/svg" xmlns:xlink="http://www.w3.org/1999/xlink" x="0px" y="0px"
	 viewBox="0 0 480 480" style="enable-background:new 0 0 480 480;" xml:space="preserve">
<style type="text/css">
	.st0{opacity:0.4;}
	.st1{fill:#FFFFFF;}
</style>
<g class="st0">
	<path class="st1" d="M352,8H96v464h256c17.7,0,32-14.3,32-32V40C384,22.3,369.7,8,352,8z M352,272c0,8.8-7.2,16-16,16H144
		c-8.8,0-16-7.2-16-16V72c0-8.8,7.2-16,16-16h192c8.8,0,16,7.2,16,16V272z"/>
	<path class="st1" d="M48,8c-8.8,0-16,7.2-16,16v432c0,8.8,7.2,16,16,16h48V8H48z"/>
	<path class="st1" d="M248,112c4.7,9.1,13.8,15.2,24,16v-8c0-17.7-14.3-32-32-32s-32,14.3-32,32v16C208,136,240,136,248,112z"/>
	<path class="st1" d="M272,184h-8.1L240,216l-24-32h-8c-26.5,0-48,21.5-48,48v24h160v-24C320,205.5,298.5,184,272,184z"/>
	<path class="st1" d="M440,104c4.4,0,8-3.6,8-8V64c0-4.4-3.6-8-8-8h-56v48H440z"/>
	<path class="st1" d="M440,264c4.4,0,8-3.6,8-8v-32c0-4.4-3.6-8-8-8h-56v48H440z"/>
</g>
<path class="st1" d="M272,176h-8v-1.4c9.6-3.4,16-12.5,16-22.6v-32c0-22.1-17.9-40-40-40s-40,17.9-40,40v32c0,10.2,6.4,19.2,16,22.6
	v1.4h-8c-30.9,0-56,25.1-56,56v24c0,4.4,3.6,8,8,8h160c4.4,0,8-3.6,8-8v-24C328,201.1,302.9,176,272,176z M256,160c-4.4,0-8,3.6-8,8
	v16c0,1.9,0.8,3.8,2,5.2l-10,13.4l-10.1-13.4c1.3-1.4,2-3.3,2.1-5.2v-16c0-4.4-3.6-8-8-8s-8-3.6-8-8v-8.7
	c12.7-1.4,24.5-7.4,33.1-16.9c4.2,4,9.3,6.9,14.9,8.5V152C264,156.4,260.4,160,256,160z M240,96c12.2,0,22.5,9.3,23.7,21.5
	c-3.5-2.3-6.4-5.4-8.5-9.1c-1.4-2.9-4.5-4.6-7.7-4.4s-6,2.4-7,5.4c-4.4,9.8-13.7,16.6-24.5,17.6V120C216,106.7,226.7,96,240,96z
	 M168,232c0-22.1,17.9-40,40-40h4l20,26.7V248h-32v-16h-16v16h-16V232z M312,248h-16v-16h-16v16h-32v-29.3l20-26.7h4
	c22.1,0,40,17.9,40,40V248z"/>
<path class="st1" d="M336,48H144c-13.3,0-24,10.7-24,24v200c0,13.3,10.7,24,24,24h192c13.3,0,24-10.7,24-24V72
	C360,58.7,349.3,48,336,48z M344,272c0,4.4-3.6,8-8,8H144c-4.4,0-8-3.6-8-8V72c0-4.4,3.6-8,8-8h192c4.4,0,8,3.6,8,8V272z"/>
<path class="st1" d="M184,328h112v16H184V328z"/>
<path class="st1" d="M152,376h184v16H152V376z"/>
<path class="st1" d="M440,112c8.8,0,16-7.2,16-16V64c0-8.8-7.2-16-16-16h-48v-8c0-22.1-17.9-40-40-40H48C34.7,0,24,10.7,24,24v432
	c0,13.3,10.7,24,24,24h304c22.1,0,40-17.9,40-40V272h48c8.8,0,16-7.2,16-16v-32c0-8.8-7.2-16-16-16h-48v-16h48c8.8,0,16-7.2,16-16
	v-32c0-8.8-7.2-16-16-16h-48v-16H440z M440,64v32h-48V64H440z M48,464c-4.4,0-8-3.6-8-8V24c0-4.4,3.6-8,8-8h40v448H48z M376,440
	c0,13.3-10.7,24-24,24H104V16h248c13.3,0,24,10.7,24,24V440z M440,224v32h-48v-32H440z M440,144v32h-48v-32H440z"/>
</svg>
