<?xml version="1.0" encoding="utf-8"?>
<!-- Generator: Adobe Illustrator 22.1.0, SVG Export Plug-In . SVG Version: 6.00 Build 0)  -->
<svg version="1.1" id="Capa_1" xmlns="http://www.w3.org/2000/svg" xmlns:xlink="http://www.w3.org/1999/xlink" x="0px" y="0px"
	 viewBox="0 0 488 488" style="enable-background:new 0 0 488 488;" xml:space="preserve">
<style type="text/css">
	.st0{opacity:0.4;fill:#FFFFFF;}
	.st1{fill:#FFFFFF;}
</style>
<path class="st0" d="M360,247.9c0,8.8-7.2,16-16,16s-16-7.2-16-16c0-8.8,7.2-16,16-16S360,239.1,360,247.9z"/>
<path class="st0" d="M104.1,247.9c0,8.8-7.2,16-16,16s-16-7.2-16-16c0-8.8,7.2-16,16-16S104.1,239.1,104.1,247.9z"/>
<path class="st0" d="M280.1,247.9c0,35.3-28.6,64-64,64c-35.3,0-64-28.6-64-64s28.6-64,64-64C251.4,183.9,280.1,212.6,280.1,247.9z"
	/>
<path class="st0" d="M120.1,56H456v48H120.1V56z"/>
<path class="st0" d="M376,271.9c-57.4,0-104,46.5-104,104s46.5,104,104,104s104-46.5,104-104S433.5,271.9,376,271.9z M376,455.9
	c-44.2,0-80-35.8-80-80s35.8-80,80-80s80,35.8,80,80S420.2,455.9,376,455.9z"/>
<g>
	<path class="st1" d="M88.1,223.9c-13.2,0-24,10.7-24,24s10.7,24,24,24s24-10.7,24-24S101.4,223.9,88.1,223.9z M88.1,255.9
		c-4.4,0-8-3.6-8-8s3.6-8,8-8s8,3.6,8,8S92.5,255.9,88.1,255.9z"/>
	<path class="st1" d="M216.1,223.9c4.4,0,8,3.6,8,8h16c0-10.1-6.4-19.1-16-22.5v-9.5h-16v9.5c-9.6,3.4-16,12.4-16,22.5
		c0,12.9,11.8,18.8,20.4,23.2c6.8,3.3,11.6,6,11.6,8.8c0,4.4-3.6,8-8,8s-8-3.6-8-8h-16c0,10.1,6.4,19.1,16,22.5v9.5h16v-9.5
		c9.6-3.4,16-12.4,16-22.5c0-12.9-11.8-18.8-20.4-23.2c-6.8-3.3-11.6-6-11.6-8.8C208.1,227.5,211.7,223.9,216.1,223.9z"/>
	<path class="st1" d="M216.1,175.9c-39.8,0-72,32.2-72,72s32.2,72,72,72s72-32.2,72-72C288,208.2,255.8,176,216.1,175.9z
		 M216.1,303.9c-30.9,0-56-25.1-56-56s25.1-56,56-56c30.9,0,56,25.1,56,56C272,278.8,247,303.9,216.1,303.9z"/>
	<path class="st1" d="M376,287.9c-48.6,0-88,39.4-88,88s39.4,88,88,88s88-39.4,88-88C463.9,327.3,424.6,288,376,287.9z M376,447.9
		c-39.8,0-72-32.2-72-72s32.2-72,72-72s72,32.2,72,72C448,415.6,415.8,447.8,376,447.9z"/>
	<path class="st1" d="M432,279.1v-55.1h8c13.2,0,24-10.7,24-24V24c0-13.2-10.7-24-24-24H136.1c-13.2,0-24,10.7-24,24v104h-72
		c-22.1,0-40,17.9-40,40v160c0,22.1,17.9,40,40,40h224.3c-0.2,2.7-0.4,5.3-0.4,8c-0.1,54.4,38.9,100.9,92.4,110.4
		c53.5,9.5,106.1-20.8,124.7-71.9C499.8,363.3,479.1,306.2,432,279.1z M128.1,24c0-4.4,3.6-8,8-8H440c4.4,0,8,3.6,8,8v24H128.1V24z
		 M128.1,64H448v32H128.1V64z M128.1,112H448v88c0,4.4-3.6,8-8,8h-8v-40c0-22.1-17.9-40-40-40H128.1V112z M40.1,351.9
		c-13.2,0-24-10.7-24-24v-160c0-13.2,10.7-24,24-24H392c13.2,0,24,10.7,24,24v103.5c-17.5-6.9-36.6-9.1-55.3-6.3
		c7.8-7.5,9.6-19.4,4.3-28.9s-16.3-14.3-26.8-11.6c-10.5,2.6-18,12-18.2,22.9c-0.2,10.9,7,20.5,17.4,23.5
		c-35.8,13.2-62.5,43.7-70.8,81H40.1z M352,247.9c0,4.4-3.6,8-8,8c-4.4,0-8-3.6-8-8s3.6-8,8-8C348.5,239.9,352,243.5,352,247.9z
		 M376,471.9c-53,0-96-43-96-96s43-96,96-96s96,43,96,96C471.9,428.9,429,471.8,376,471.9z"/>
	<path class="st1" d="M376,335.9c8.8,0,16,7.2,16,16h16c-0.1-14.5-9.9-27.2-24-30.9v-9.1h-16v9.1c-14.1,3.6-23.9,16.3-24,30.9
		c0,21.8,17,27.4,29.5,31.6c13.4,4.5,18.5,7.1,18.5,16.4c0,8.8-7.2,16-16,16s-16-7.2-16-16h-16c0.1,14.5,9.9,27.2,24,30.9v9.1h16
		v-9.1c14.1-3.6,23.9-16.3,24-30.9c0-21.8-17-27.4-29.5-31.6c-13.4-4.5-18.5-7.1-18.5-16.4C360,343.1,367.2,335.9,376,335.9z"/>
</g>
</svg>
